<svg width="20" height="20" viewBox="0 0 20 20" fill="none" xmlns="http://www.w3.org/2000/svg">
<path d="M6.66669 16.6667V18.277C6.66669 18.5072 6.48014 18.6937 6.25002 18.6937C6.15255 18.6937 6.05816 18.6595 5.98328 18.5971L2.5508 15.7368C2.37401 15.5894 2.35013 15.3267 2.49745 15.1499C2.57661 15.0549 2.69389 15 2.81755 15H15C15.9205 15 16.6667 14.2538 16.6667 13.3334V6.66667H18.3334V13.3334C18.3334 15.1743 16.8409 16.6667 15 16.6667H6.66669ZM13.3334 3.33333V1.72294C13.3334 1.49282 13.5199 1.30627 13.75 1.30627C13.8475 1.30627 13.9419 1.34045 14.0168 1.40285L17.4493 4.26325C17.626 4.41057 17.6499 4.67331 17.5026 4.85009C17.4234 4.94508 17.3062 5.00001 17.1825 5.00001L5.00002 5C4.07955 5 3.33335 5.74619 3.33335 6.66667V13.3334H1.66669V6.66667C1.66669 4.82572 3.15907 3.33333 5.00002 3.33333H13.3334Z" fill="black"/>
</svg>
