<svg width="22" height="22" viewBox="0 0 22 22" fill="none" xmlns="http://www.w3.org/2000/svg">
<path d="M16.5284 15.2321L20.4542 19.1579L19.1579 20.4543L15.2321 16.5285C13.8205 17.6578 12.0303 18.3334 10.0833 18.3334C5.52933 18.3334 1.83333 14.6374 1.83333 10.0834C1.83333 5.52937 5.52933 1.83337 10.0833 1.83337C14.6373 1.83337 18.3333 5.52937 18.3333 10.0834C18.3333 12.0304 17.6577 13.8205 16.5284 15.2321ZM14.6893 14.5519C15.8102 13.3968 16.5 11.821 16.5 10.0834C16.5 6.53817 13.6285 3.66671 10.0833 3.66671C6.53812 3.66671 3.66667 6.53817 3.66667 10.0834C3.66667 13.6286 6.53812 16.5 10.0833 16.5C11.821 16.5 13.3967 15.8102 14.5519 14.6893L14.6893 14.5519Z" fill="black"/>
</svg>
